<svg width="30" height="60" viewBox="0 0 30 60" xmlns="http://www.w3.org/2000/svg">

    <path d="M 5 5
           Q 2 7, 2 15
           L 2 45
           Q 2 53, 5 55
           L 25 55
           Q 28 53, 28 45
           L 28 15
           Q 28 7, 25 5
           Z"
          fill="#6c757d" stroke="#343a40" stroke-width="1"/>

    <rect x="7" y="12" width="16" height="25" rx="3" ry="3" fill="#a1c4fd" stroke="#6f8faf" stroke-width="0.5"/>

    <line x1="7" y1="20" x2="23" y2="20" stroke="#6f8faf" stroke-width="0.7"/> <!-- Ligne sous pare-brise -->
    <line x1="7" y1="29" x2="23" y2="29" stroke="#6f8faf" stroke-width="0.7"/> <!-- Ligne avant lunette arrière -->

    <rect x="0.5" y="18" width="2.5" height="5" rx="1" fill="#495057"/>
    <rect x="27" y="18" width="2.5" height="5" rx="1" fill="#495057"/>

    <circle cx="8" cy="7" r="1.5" fill="#ffff99" stroke="#f0e68c" stroke-width="0.5"/> -->
    <circle cx="22" cy="7" r="1.5" fill="#ffff99" stroke="#f0e68c" stroke-width="0.5"/> -->

    <rect x="7" y="52" width="4" height="2" rx="0.5" fill="#ff6666" stroke="#dc3545" stroke-width="0.5"/> -->
    <rect x="19" y="52" width="4" height="2" rx="0.5" fill="#ff6666" stroke="#dc3545" stroke-width="0.5"/> -->

</svg>